<svg width="38" height="38" viewBox="0 0 38 38" fill="none" xmlns="http://www.w3.org/2000/svg">
<rect width="38" height="38" rx="8" fill="white"/>
<path fill-rule="evenodd" clip-rule="evenodd" d="M19.1968 14.0883V30.4621H17.1085V14.6431C17.1085 13.4759 17.3736 12.3707 17.8469 11.3843C18.6667 12.0016 19.1968 12.983 19.1968 14.0883ZM23.3824 11.877C23.7685 11.6997 24.1981 11.6008 24.6508 11.6008C26.331 11.6008 27.6931 12.9629 27.6931 14.6431V30.8992H32.1931V14.6431C32.1931 10.4776 28.8163 7.10078 24.6508 7.10078C23.2948 7.10078 22.0224 7.45861 20.9229 8.08499C22.0783 9.06922 22.9461 10.3811 23.3824 11.877Z" fill="#81C2BE"/>
<path fill-rule="evenodd" clip-rule="evenodd" d="M17.0721 30.8992V14.9834C17.0721 13.1152 15.5577 11.6008 13.6895 11.6008C11.8213 11.6008 10.3069 13.1152 10.3069 14.9834V30.8992H5.80688V14.9834C5.80688 10.6299 9.33606 7.10078 13.6895 7.10078C18.043 7.10078 21.5721 10.63 21.5721 14.9834V30.8992H17.0721Z" fill="#171717"/>
</svg>
