<svg width="130" height="31" viewBox="0 0 130 31" fill="none" xmlns="http://www.w3.org/2000/svg">
<g clip-path="url(#clip0_2_5)">
<path d="M7.706 30.368C5.34467 30.368 3.45867 29.7087 2.048 28.39C0.668 27.0713 -0.0219999 25.2927 -0.0219999 23.054V13.532C-0.0219999 11.3547 0.668 9.59133 2.048 8.242C3.45867 6.89267 5.34467 6.218 7.706 6.218C9.27 6.218 10.6347 6.52467 11.8 7.138C12.996 7.72067 13.9007 8.53333 14.514 9.576C15.158 10.588 15.48 11.738 15.48 13.026V13.624C15.48 13.9307 15.3267 14.084 15.02 14.084L11.524 14.222C11.2173 14.222 11.064 14.0687 11.064 13.762V13.302C11.064 12.4127 10.742 11.646 10.098 11.002C9.454 10.358 8.65667 10.036 7.706 10.036C6.72467 10.036 5.92733 10.3887 5.314 11.094C4.70067 11.7993 4.394 12.704 4.394 13.808V22.778C4.394 23.882 4.70067 24.7867 5.314 25.492C5.92733 26.1973 6.72467 26.55 7.706 26.55C8.65667 26.55 9.454 26.228 10.098 25.584C10.742 24.94 11.064 24.1733 11.064 23.284V22.824C11.064 22.5173 11.2173 22.364 11.524 22.364L15.02 22.41C15.3267 22.41 15.48 22.5633 15.48 22.87V23.56C15.48 25.5533 14.7747 27.194 13.364 28.482C11.9533 29.7393 10.0673 30.368 7.706 30.368ZM26.938 6.218C29.1766 6.218 31.0013 6.92333 32.412 8.334C33.8533 9.74467 34.574 11.6 34.574 13.9V29.54C34.574 29.8467 34.4206 30 34.114 30H30.618C30.3113 30 30.158 29.8467 30.158 29.54V28.528C30.158 28.4667 30.1273 28.4207 30.066 28.39C30.0353 28.3593 29.9893 28.3747 29.928 28.436C28.8546 29.724 27.2753 30.368 25.19 30.368C23.442 30.368 21.8933 29.8773 20.544 28.896C19.2253 27.884 18.566 26.1053 18.566 23.56C18.566 20.892 19.3633 18.9447 20.958 17.718C22.5833 16.4607 24.6993 15.832 27.306 15.832H29.974C30.0966 15.832 30.158 15.7707 30.158 15.648V14.314C30.158 13.026 29.8513 11.9987 29.238 11.232C28.6246 10.4347 27.8273 10.036 26.846 10.036C26.0793 10.036 25.4353 10.2967 24.914 10.818C24.3926 11.3393 24.086 12.014 23.994 12.842C23.994 13.1487 23.8406 13.302 23.534 13.302H19.808C19.5013 13.302 19.348 13.1487 19.348 12.842C19.5013 10.8793 20.2833 9.28467 21.694 8.058C23.1046 6.83133 24.8526 6.218 26.938 6.218ZM26.156 26.504C27.2293 26.504 28.1646 26.1667 28.962 25.492C29.7593 24.8173 30.158 23.8667 30.158 22.64V19.512C30.158 19.3893 30.0966 19.328 29.974 19.328H27.168C25.9413 19.328 24.96 19.6653 24.224 20.34C23.488 20.984 23.12 21.9347 23.12 23.192C23.12 24.296 23.396 25.124 23.948 25.676C24.5 26.228 25.236 26.504 26.156 26.504ZM45.605 30.276C43.305 30.276 41.4803 29.724 40.131 28.62C38.8123 27.4853 38.153 25.9673 38.153 24.066V23.652C38.153 23.3453 38.3063 23.192 38.613 23.192H41.879C42.1856 23.192 42.339 23.3453 42.339 23.652V23.974C42.339 24.802 42.661 25.5073 43.305 26.09C43.949 26.642 44.7463 26.918 45.697 26.918C46.617 26.918 47.353 26.642 47.905 26.09C48.4876 25.538 48.779 24.8327 48.779 23.974C48.779 23.2993 48.5796 22.732 48.181 22.272C47.7823 21.812 47.307 21.4593 46.755 21.214C46.2336 20.938 45.421 20.57 44.317 20.11C43.121 19.5887 42.1243 19.0827 41.327 18.592C40.5603 18.1013 39.8703 17.396 39.257 16.476C38.6436 15.556 38.337 14.3907 38.337 12.98C38.337 10.8947 38.981 9.26933 40.269 8.104C41.5876 6.93867 43.351 6.356 45.559 6.356C47.8283 6.356 49.607 6.954 50.895 8.15C52.2136 9.346 52.873 10.9713 52.873 13.026V13.164C52.873 13.4707 52.7196 13.624 52.413 13.624H49.239C48.9323 13.624 48.779 13.4707 48.779 13.164V12.842C48.779 12.014 48.4876 11.3087 47.905 10.726C47.3223 10.1433 46.571 9.852 45.651 9.852C44.7003 9.852 43.949 10.1433 43.397 10.726C42.845 11.3087 42.569 12.014 42.569 12.842C42.569 13.486 42.753 14.0227 43.121 14.452C43.489 14.8813 43.9336 15.234 44.455 15.51C44.9763 15.7553 45.8043 16.1233 46.939 16.614C48.1963 17.166 49.239 17.7027 50.067 18.224C50.895 18.7147 51.6156 19.42 52.229 20.34C52.873 21.26 53.195 22.41 53.195 23.79C53.195 25.7833 52.505 27.3627 51.125 28.528C49.7756 29.6933 47.9356 30.276 45.605 30.276ZM94.5005 6.218C96.7391 6.218 98.5638 6.92333 99.9745 8.334C101.416 9.74467 102.136 11.6 102.136 13.9V29.54C102.136 29.8467 101.983 30 101.676 30H98.1805C97.8738 30 97.7205 29.8467 97.7205 29.54V28.528C97.7205 28.4667 97.6898 28.4207 97.6285 28.39C97.5978 28.3593 97.5518 28.3747 97.4905 28.436C96.4171 29.724 94.8378 30.368 92.7525 30.368C91.0045 30.368 89.4558 29.8773 88.1065 28.896C86.7878 27.884 86.1285 26.1053 86.1285 23.56C86.1285 20.892 86.9258 18.9447 88.5205 17.718C90.1458 16.4607 92.2618 15.832 94.8685 15.832H97.5365C97.6591 15.832 97.7205 15.7707 97.7205 15.648V14.314C97.7205 13.026 97.4138 11.9987 96.8005 11.232C96.1871 10.4347 95.3898 10.036 94.4085 10.036C93.6418 10.036 92.9978 10.2967 92.4765 10.818C91.9551 11.3393 91.6485 12.014 91.5565 12.842C91.5565 13.1487 91.4031 13.302 91.0965 13.302H87.3705C87.0638 13.302 86.9105 13.1487 86.9105 12.842C87.0638 10.8793 87.8458 9.28467 89.2565 8.058C90.6671 6.83133 92.4151 6.218 94.5005 6.218ZM93.7185 26.504C94.7918 26.504 95.7271 26.1667 96.5245 25.492C97.3218 24.8173 97.7205 23.8667 97.7205 22.64V19.512C97.7205 19.3893 97.6591 19.328 97.5365 19.328H94.7305C93.5038 19.328 92.5225 19.6653 91.7865 20.34C91.0505 20.984 90.6825 21.9347 90.6825 23.192C90.6825 24.296 90.9585 25.124 91.5105 25.676C92.0625 26.228 92.7985 26.504 93.7185 26.504ZM115.375 6.356C116.142 6.356 116.801 6.52467 117.353 6.862C117.568 6.98467 117.645 7.184 117.583 7.46L116.893 10.956C116.863 11.232 116.679 11.324 116.341 11.232C115.943 11.0787 115.513 11.002 115.053 11.002C114.869 11.002 114.593 11.0327 114.225 11.094C113.275 11.186 112.477 11.7073 111.833 12.658C111.22 13.6087 110.913 14.7587 110.913 16.108V29.54C110.913 29.8467 110.76 30 110.453 30H106.957C106.651 30 106.497 29.8467 106.497 29.54V7.046C106.497 6.73933 106.651 6.586 106.957 6.586H110.453C110.76 6.586 110.913 6.73933 110.913 7.046V9.714C110.913 9.806 110.929 9.86733 110.959 9.898C111.021 9.898 111.067 9.852 111.097 9.76C111.987 7.49067 113.413 6.356 115.375 6.356ZM129.622 9.346C129.622 9.65267 129.469 9.806 129.162 9.806H125.942C125.82 9.806 125.758 9.86733 125.758 9.99V22.916C125.758 24.1427 125.973 25.0013 126.402 25.492C126.832 25.952 127.506 26.1667 128.426 26.136H128.84C129.147 26.136 129.3 26.2893 129.3 26.596V29.54C129.3 29.8467 129.147 30 128.84 30H127.414C125.452 30 123.964 29.6167 122.952 28.85C121.971 28.0833 121.48 26.6267 121.48 24.48V9.99C121.48 9.86733 121.419 9.806 121.296 9.806H119.502C119.196 9.806 119.042 9.65267 119.042 9.346V7.046C119.042 6.73933 119.196 6.586 119.502 6.586H121.296C121.419 6.586 121.48 6.52467 121.48 6.402V1.204C121.48 0.897331 121.634 0.743998 121.94 0.743998H125.298C125.605 0.743998 125.758 0.897331 125.758 1.204V6.402C125.758 6.52467 125.82 6.586 125.942 6.586H129.162C129.469 6.586 129.622 6.73933 129.622 7.046V9.346Z" fill="#171717"/>
<path fill-rule="evenodd" clip-rule="evenodd" d="M69.8165 13.1891V29.5629H67.7282V13.7439C67.7282 12.5767 67.9934 11.4715 68.4667 10.4851C69.2865 11.1024 69.8165 12.0838 69.8165 13.1891ZM74.0022 10.9778C74.3883 10.8004 74.8179 10.7016 75.2706 10.7016C76.9508 10.7016 78.3129 12.0637 78.3129 13.7439V30H82.8129V13.7439C82.8129 9.57838 79.4361 6.20157 75.2706 6.20157C73.9146 6.20157 72.6422 6.5594 71.5426 7.18578C72.6981 8.17001 73.5658 9.48193 74.0022 10.9778Z" fill="#81C2BE"/>
<path fill-rule="evenodd" clip-rule="evenodd" d="M67.6919 30V14.0842C67.6919 12.216 66.1775 10.7016 64.3093 10.7016C62.4411 10.7016 60.9267 12.216 60.9267 14.0842V30H56.4267V14.0842C56.4267 9.73074 59.9558 6.20157 64.3093 6.20157C68.6627 6.20157 72.1919 9.73074 72.1919 14.0842V30H67.6919Z" fill="#171717"/>
</g>
<defs>
<clipPath id="clip0_2_5">
<rect width="130" height="31" fill="white"/>
</clipPath>
</defs>
</svg>
