<svg id="_003-scooter" data-name="003-scooter" xmlns="http://www.w3.org/2000/svg" width="46.699" height="40.604" viewBox="0 0 46.699 40.604">
                                 <path id="Path_3267" data-name="Path 3267" d="M50.456,29.234h11.6a3.356,3.356,0,0,0,3.352-3.352V14.731a3.427,3.427,0,0,0-3.423-3.424H50.456a3.427,3.427,0,0,0-3.423,3.424V25.81a3.427,3.427,0,0,0,3.423,3.424ZM61.983,12.722a2.011,2.011,0,0,1,2.008,2.009V25.882a1.939,1.939,0,0,1-1.937,1.937h-11.6a2.011,2.011,0,0,1-2.008-2.009V14.731a2.01,2.01,0,0,1,2.008-2.009Z" transform="translate(-47.033 -11.307)" fill="#171717"></path>
                                 <path id="Path_3268" data-name="Path 3268" d="M46.526,41.883H59.247a.708.708,0,0,0,.708-.708V37.97a3.33,3.33,0,0,0-3.326-3.325h-10.1A3.33,3.33,0,0,0,43.2,37.97v.587a3.33,3.33,0,0,0,3.326,3.326ZM58.54,40.468H46.526a1.91,1.91,0,0,1-1.91-1.91v-.587a1.91,1.91,0,0,1,1.91-1.91h10.1a1.91,1.91,0,0,1,1.91,1.91Z" transform="translate(-38.869 -18.132)" fill="#171717"></path>
                                 <path id="Path_3269" data-name="Path 3269" d="M26.589,55.345H57.783a.708.708,0,1,0,0-1.415H26.589A1.79,1.79,0,0,1,24.8,52.193c1.031-6.683,6.17-7.871,6.389-7.918A.708.708,0,1,0,30.9,42.89c-.064.013-6.344,1.415-7.5,9.149a.747.747,0,0,0-.008.105A3.207,3.207,0,0,0,26.589,55.345Z" transform="translate(-23.386 -20.539)" fill="#171717"></path>
                                 <path id="Path_3270" data-name="Path 3270" d="M46.021,55.345a.708.708,0,0,0,.551-1.15,7.567,7.567,0,0,1-.035-10.131A.708.708,0,1,0,45.5,43.1a9.113,9.113,0,0,0-.034,11.983A.708.708,0,0,0,46.021,55.345Z" transform="translate(-25.643 -20.538)" fill="#171717"></path>
                                 <path id="Path_3271" data-name="Path 3271" d="M53.272,65.441A6.246,6.246,0,0,0,59.511,59.2a.708.708,0,0,0-1.415,0,4.824,4.824,0,1,1-9.648,0,.708.708,0,0,0-1.415,0A6.246,6.246,0,0,0,53.272,65.441Z" transform="translate(-41.138 -25.107)" fill="#171717"></path>
                                 <path id="Path_3272" data-name="Path 3272" d="M55.106,52.1h3.267a.708.708,0,1,0,0-1.415H55.108a.708.708,0,1,0,0,1.415Z" transform="translate(-45.92 -22.824)" fill="#171717"></path>
                                 <path id="Path_3273" data-name="Path 3273" d="M13.5,63.317A6.5,6.5,0,1,0,7,56.808,6.5,6.5,0,0,0,13.5,63.317Zm0-11.59a5.088,5.088,0,1,1-5.082,5.082A5.088,5.088,0,0,1,13.5,51.727Z" transform="translate(26.691 -22.714)" fill="#171717"></path>
                                 <path id="Path_3274" data-name="Path 3274" d="M8.107,55.337a.708.708,0,0,0,.675-.92,7.783,7.783,0,1,1,15.2-2.36,5.785,5.785,0,0,1-.114,1.216.676.676,0,0,0-.016.146.708.708,0,0,0,1.411.1,7.358,7.358,0,0,0,.134-1.459A9.2,9.2,0,1,0,7.432,54.846.708.708,0,0,0,8.107,55.337Z" transform="translate(21.302 -20.535)" fill="#171717"></path>
                                 <path id="Path_3275" data-name="Path 3275" d="M19.709,48.117a.708.708,0,0,0,.708-.708V34.222a5.8,5.8,0,0,1,4.528-5.757l.047-.008,2.519,10.637a.707.707,0,1,0,1.377-.325L26.225,27.511a.7.7,0,0,0-.747-.541,7.877,7.877,0,0,0-.786.1A7.14,7.14,0,0,0,19,34.222V47.409A.708.708,0,0,0,19.709,48.117Z" transform="translate(9.301 -15.887)" fill="#171717"></path>
                                 <path id="Path_3276" data-name="Path 3276" d="M19.708,25.984H31.1a.708.708,0,0,0,.708-.708v-5.8a.708.708,0,0,0-.708-.708H28.722A4.029,4.029,0,0,0,24.7,22.792v1.775h-4.99a.708.708,0,1,0,0,1.415ZM30.4,24.569H26.113V22.794a2.612,2.612,0,0,1,2.609-2.609H30.4Z" transform="translate(6.396 -13.489)" fill="#171717"></path>
                                 <path id="Path_3277" data-name="Path 3277" d="M47.741,20.915H64.7a.708.708,0,1,0,0-1.415H47.741a.708.708,0,1,0,0,1.415Z" transform="translate(-47.033 -13.703)" fill="#171717"></path>
                                 <path id="Path_3278" data-name="Path 3278" d="M14.831,61.427a3.284,3.284,0,1,0-3.284-3.284,3.285,3.285,0,0,0,3.284,3.284Zm0-5.153a1.869,1.869,0,1,1-1.869,1.869A1.869,1.869,0,0,1,14.831,56.274Z" transform="translate(25.366 -24.044)" fill="#171717"></path>
                              </svg>