<svg xmlns="http://www.w3.org/2000/svg" width="33.672" height="40.472" viewBox="0 0 33.672 40.472">
                                 <g id="headphones" transform="translate(-43.008)">
                                    <g id="Group_2248" data-name="Group 2248" transform="translate(57.528 6.231)">
                                       <g id="Group_2247" data-name="Group 2247">
                                          <path id="Path_3446" data-name="Path 3446" d="M242.332,79.14a.794.794,0,0,0-1.255.971,15.1,15.1,0,0,1,3.183,9.326v2.327a2.338,2.338,0,0,0-.761-.127h-2.189a1.943,1.943,0,0,0-1.871-1.426h-2.175a1.942,1.942,0,0,0-1.939,1.939v10.408a1.942,1.942,0,0,0,1.939,1.94h2.175a1.947,1.947,0,0,0,.3-.024,6.063,6.063,0,0,1-6.005,5.285h-.419a2.146,2.146,0,0,0-2.1-1.726h-2.378a2.145,2.145,0,0,0-2.143,2.143v.754a2.145,2.145,0,0,0,2.143,2.143h2.378a2.146,2.146,0,0,0,2.1-1.726h.419a7.651,7.651,0,0,0,7.643-7.642.789.789,0,0,0-.134-.441,1.925,1.925,0,0,0,.064-.193H243.5a2.35,2.35,0,0,0,2.348-2.347V89.437A16.675,16.675,0,0,0,242.332,79.14Zm-10.561,31.79h0a.556.556,0,0,1-.555.555h-2.378a.556.556,0,0,1-.555-.555v-.754a.556.556,0,0,1,.555-.555h2.378a.556.556,0,0,1,.555.555Zm8.021-18.5v10.127a.353.353,0,0,1-.353.353h-2.175a.353.353,0,0,1-.352-.353V92.15a.353.353,0,0,1,.352-.352h2.175a.353.353,0,0,1,.353.352Zm4.468,1.989v6.3a.762.762,0,0,1-.761.76h-2.12v-8.26h2.12a.762.762,0,0,1,.761.761Z" transform="translate(-226.694 -78.832)" fill="#171717"></path>
                                       </g>
                                    </g>
                                    <g id="Group_2250" data-name="Group 2250" transform="translate(43.008)">
                                       <g id="Group_2249" data-name="Group 2249" transform="translate(0)">
                                          <path id="Path_3447" data-name="Path 3447" d="M69.648,3.148a16.837,16.837,0,0,0-26.64,13.689V28.123a2.35,2.35,0,0,0,2.348,2.347h2.189A1.943,1.943,0,0,0,49.416,31.9h2.175a1.942,1.942,0,0,0,1.939-1.94V19.549a1.942,1.942,0,0,0-1.939-1.939H49.416a1.943,1.943,0,0,0-1.871,1.426H45.356a2.338,2.338,0,0,0-.761.127V16.836a15.251,15.251,0,0,1,24.128-12.4.794.794,0,1,0,.925-1.289ZM49.063,29.677V19.549a.353.353,0,0,1,.353-.352h2.175a.353.353,0,0,1,.352.352V29.957a.353.353,0,0,1-.352.353H49.416a.353.353,0,0,1-.353-.353Zm-3.707-9.054h2.12v8.26h-2.12a.762.762,0,0,1-.761-.76V21.384A.762.762,0,0,1,45.356,20.623Z" transform="translate(-43.008 0)" fill="#171717"></path>
                                       </g>
                                    </g>
                                    <g id="Group_2252" data-name="Group 2252" transform="translate(70.161 4.444)">
                                       <g id="Group_2251" data-name="Group 2251" transform="translate(0)">
                                          <path id="Path_3448" data-name="Path 3448" d="M387.284,56.22a.794.794,0,0,0,0,1.587A.794.794,0,0,0,387.284,56.22Z" transform="translate(-386.517 -56.22)" fill="#171717"></path>
                                       </g>
                                    </g>
                                 </g>
                              </svg>