<svg id="_004-return" data-name="004-return" xmlns="http://www.w3.org/2000/svg" width="41.583" height="40.603" viewBox="0 0 41.583 40.603">
                                 <path id="Path_3279" data-name="Path 3279" d="M263.129,392.394a.609.609,0,0,0,.609-.609v-1.07a.609.609,0,1,0-1.219,0v1.07A.609.609,0,0,0,263.129,392.394Zm0,0" transform="translate(-241.198 -358.423)" fill="#171717"></path>
                                 <path id="Path_3280" data-name="Path 3280" d="M408.754,392.394a.609.609,0,0,0,.609-.609v-1.07a.609.609,0,1,0-1.219,0v1.07A.609.609,0,0,0,408.754,392.394Zm0,0" transform="translate(-374.997 -358.423)" fill="#171717"></path>
                                 <path id="Path_3281" data-name="Path 3281" d="M319.429,404.232a2.54,2.54,0,0,0,1.918-.854.609.609,0,1,0-.917-.8,1.364,1.364,0,0,1-2,0,.609.609,0,0,0-.918.8,2.539,2.539,0,0,0,1.918.854Zm0,0" transform="translate(-291.586 -369.69)" fill="#171717"></path>
                                 <path id="Path_3282" data-name="Path 3282" d="M101.007,7.387l5.508,4.8a1.492,1.492,0,0,0,2.453-1.116v-.948a10.7,10.7,0,0,1,4.372,1.2,7.814,7.814,0,0,1,3.65,4.446,1.492,1.492,0,0,0,1.427,1.031c.156,0,.312-.013.467-.02a1.508,1.508,0,0,0,1.425-1.569V15.2a11.929,11.929,0,0,0-1.032-4.222,13.808,13.808,0,0,0-5.852-6.143,20.344,20.344,0,0,0-4.458-1.784V1.47A1.5,1.5,0,0,0,106.515.354l-5.508,4.8a1.5,1.5,0,0,0,0,2.232Zm.8-1.313,5.508-4.8a.263.263,0,0,1,.434.2V3.519a.609.609,0,0,0,.471.593c.117.027.248.063.368.1A19.209,19.209,0,0,1,112.8,5.886a12.639,12.639,0,0,1,5.364,5.6,10.7,10.7,0,0,1,.924,3.785v.009a.277.277,0,0,1-.264.287l-.4.018h-.014a.281.281,0,0,1-.268-.187,9.043,9.043,0,0,0-4.229-5.142,12.136,12.136,0,0,0-5.5-1.375.625.625,0,0,0-.673.608v1.584a.264.264,0,0,1-.434.2l-5.508-4.8a.265.265,0,0,1,0-.395Zm0,0" transform="translate(-92.345 -0.001)" fill="#171717"></path>
                                 <path id="Path_3283" data-name="Path 3283" d="M1.81,228.131H3.284v9.584A2.485,2.485,0,0,0,5.766,240.2H35.817a2.485,2.485,0,0,0,2.482-2.482v-9.584h1.473a1.831,1.831,0,0,0,1.684-2.485l-3.2-8.025a.609.609,0,0,0-.566-.384H34.472a.609.609,0,0,0,0,1.219h2.805l3.048,7.641a.6.6,0,0,1-.552.815H20.689a.6.6,0,0,1-.552-.374l-3.224-8.082H32.035a.609.609,0,1,0,0-1.218H3.893a.609.609,0,0,0-.566.383l-3.2,8.025a1.83,1.83,0,0,0,1.684,2.485Zm14.2,6.444a.609.609,0,0,0,.609-.609V221.019L19,226.99a1.8,1.8,0,0,0,1.684,1.141H37.081v9.584a1.265,1.265,0,0,1-1.264,1.264H16.623V236.4a.609.609,0,1,0-1.219,0v2.576H5.766A1.265,1.265,0,0,1,4.5,237.716v-9.584h6.837a1.824,1.824,0,0,0,1.684-1.141l2.382-5.971v12.948a.609.609,0,0,0,.609.609ZM1.258,226.1l3.048-7.641H15.115l-3.224,8.082a.6.6,0,0,1-.552.374H1.81a.6.6,0,0,1-.552-.815Zm0,0" transform="translate(0 -199.595)" fill="#171717"></path>
                              </svg>